<mxfile host="app.diagrams.net" agent="Mozilla/5.0 (Windows NT 10.0; Win64; x64) AppleWebKit/537.36 (KHTML, like Gecko) Chrome/134.0.0.0 Safari/537.36" version="26.1.1">
  <diagram name="Trang-1" id="Q7we8QN22_Dc0GwQsEJo">
    <mxGraphModel dx="1290" dy="557" grid="1" gridSize="10" guides="1" tooltips="1" connect="1" arrows="1" fold="1" page="1" pageScale="1" pageWidth="827" pageHeight="1169" math="0" shadow="0">
      <root>
        <mxCell id="0" />
        <mxCell id="1" parent="0" />
        <mxCell id="GhR0AWSsbFGkLl2orixD-1" value="Form chat" style="shape=umlBoundary;whiteSpace=wrap;html=1;fillColor=#FFCCE6;" parent="1" vertex="1">
          <mxGeometry x="95" y="250" width="100" height="80" as="geometry" />
        </mxCell>
        <mxCell id="GhR0AWSsbFGkLl2orixD-2" value="Control chat" style="ellipse;shape=umlControl;whiteSpace=wrap;html=1;fillColor=#FFCCE6;" parent="1" vertex="1">
          <mxGeometry x="220" y="250" width="70" height="80" as="geometry" />
        </mxCell>
        <mxCell id="GhR0AWSsbFGkLl2orixD-3" value="Student" style="ellipse;shape=umlEntity;whiteSpace=wrap;html=1;fillColor=#FFCCE6;" parent="1" vertex="1">
          <mxGeometry x="315" y="250" width="80" height="80" as="geometry" />
        </mxCell>
        <mxCell id="GhR0AWSsbFGkLl2orixD-4" value="Admin" style="ellipse;shape=umlEntity;whiteSpace=wrap;html=1;fillColor=#FFCCE6;" parent="1" vertex="1">
          <mxGeometry x="420" y="250" width="80" height="80" as="geometry" />
        </mxCell>
        <mxCell id="GhR0AWSsbFGkLl2orixD-5" value="Admin" style="shape=umlActor;verticalLabelPosition=bottom;verticalAlign=top;html=1;fillColor=#FFF2CC;" parent="1" vertex="1">
          <mxGeometry x="150" y="80" width="30" height="60" as="geometry" />
        </mxCell>
        <mxCell id="GhR0AWSsbFGkLl2orixD-6" value="Student" style="shape=umlActor;verticalLabelPosition=bottom;verticalAlign=top;html=1;fillColor=#FFF2CC;" parent="1" vertex="1">
          <mxGeometry x="520" y="80" width="30" height="60" as="geometry" />
        </mxCell>
        <mxCell id="GhR0AWSsbFGkLl2orixD-7" value="Chat" style="ellipse;whiteSpace=wrap;html=1;fillColor=#FFF2CC;" parent="1" vertex="1">
          <mxGeometry x="280" y="90" width="140" height="70" as="geometry" />
        </mxCell>
        <mxCell id="GhR0AWSsbFGkLl2orixD-10" value="" style="endArrow=none;html=1;rounded=0;entryX=0;entryY=0.5;entryDx=0;entryDy=0;" parent="1" source="GhR0AWSsbFGkLl2orixD-5" target="GhR0AWSsbFGkLl2orixD-7" edge="1">
          <mxGeometry width="50" height="50" relative="1" as="geometry">
            <mxPoint x="230" y="190" as="sourcePoint" />
            <mxPoint x="280" y="140" as="targetPoint" />
          </mxGeometry>
        </mxCell>
        <mxCell id="GhR0AWSsbFGkLl2orixD-11" value="" style="endArrow=none;html=1;rounded=0;entryX=1;entryY=0.5;entryDx=0;entryDy=0;" parent="1" source="GhR0AWSsbFGkLl2orixD-6" target="GhR0AWSsbFGkLl2orixD-7" edge="1">
          <mxGeometry width="50" height="50" relative="1" as="geometry">
            <mxPoint x="190" y="122" as="sourcePoint" />
            <mxPoint x="290" y="135" as="targetPoint" />
          </mxGeometry>
        </mxCell>
        <mxCell id="GhR0AWSsbFGkLl2orixD-12" value="" style="endArrow=none;html=1;rounded=0;" parent="1" edge="1">
          <mxGeometry width="50" height="50" relative="1" as="geometry">
            <mxPoint x="360" y="240" as="sourcePoint" />
            <mxPoint x="360" y="170" as="targetPoint" />
          </mxGeometry>
        </mxCell>
        <mxCell id="q4FE1DRr6aeODJJ_JZDe-1" value="Chat" style="shape=umlFrame;whiteSpace=wrap;html=1;pointerEvents=0;" parent="1" vertex="1">
          <mxGeometry x="70" y="30" width="570" height="340" as="geometry" />
        </mxCell>
        <mxCell id="q4FE1DRr6aeODJJ_JZDe-24" value="Form manage users" style="shape=umlBoundary;whiteSpace=wrap;html=1;fillColor=#FFCCE6;" parent="1" vertex="1">
          <mxGeometry x="100" y="610" width="100" height="80" as="geometry" />
        </mxCell>
        <mxCell id="q4FE1DRr6aeODJJ_JZDe-25" value="Control manage users" style="ellipse;shape=umlControl;whiteSpace=wrap;html=1;fillColor=#FFCCE6;" parent="1" vertex="1">
          <mxGeometry x="260" y="610" width="70" height="80" as="geometry" />
        </mxCell>
        <mxCell id="q4FE1DRr6aeODJJ_JZDe-26" value="Student" style="ellipse;shape=umlEntity;whiteSpace=wrap;html=1;fillColor=#FFCCE6;" parent="1" vertex="1">
          <mxGeometry x="390" y="610" width="80" height="80" as="geometry" />
        </mxCell>
        <mxCell id="q4FE1DRr6aeODJJ_JZDe-27" value="Admin" style="ellipse;shape=umlEntity;whiteSpace=wrap;html=1;fillColor=#FFCCE6;" parent="1" vertex="1">
          <mxGeometry x="530" y="610" width="80" height="80" as="geometry" />
        </mxCell>
        <mxCell id="q4FE1DRr6aeODJJ_JZDe-28" value="Admin" style="shape=umlActor;verticalLabelPosition=bottom;verticalAlign=top;html=1;fillColor=#FFF2CC;" parent="1" vertex="1">
          <mxGeometry x="230" y="455" width="30" height="60" as="geometry" />
        </mxCell>
        <mxCell id="q4FE1DRr6aeODJJ_JZDe-30" value="Manage users" style="ellipse;whiteSpace=wrap;html=1;fillColor=#FFF2CC;" parent="1" vertex="1">
          <mxGeometry x="420" y="450" width="140" height="70" as="geometry" />
        </mxCell>
        <mxCell id="q4FE1DRr6aeODJJ_JZDe-31" value="" style="endArrow=none;html=1;rounded=0;entryX=0;entryY=0.5;entryDx=0;entryDy=0;" parent="1" source="q4FE1DRr6aeODJJ_JZDe-28" target="q4FE1DRr6aeODJJ_JZDe-30" edge="1">
          <mxGeometry width="50" height="50" relative="1" as="geometry">
            <mxPoint x="230" y="550" as="sourcePoint" />
            <mxPoint x="280" y="500" as="targetPoint" />
          </mxGeometry>
        </mxCell>
        <mxCell id="q4FE1DRr6aeODJJ_JZDe-33" value="" style="endArrow=none;html=1;rounded=0;" parent="1" edge="1">
          <mxGeometry width="50" height="50" relative="1" as="geometry">
            <mxPoint x="360" y="600" as="sourcePoint" />
            <mxPoint x="360" y="530" as="targetPoint" />
          </mxGeometry>
        </mxCell>
        <mxCell id="q4FE1DRr6aeODJJ_JZDe-34" value="Manage users" style="shape=umlFrame;whiteSpace=wrap;html=1;pointerEvents=0;width=90;height=30;" parent="1" vertex="1">
          <mxGeometry x="70" y="390" width="570" height="340" as="geometry" />
        </mxCell>
        <mxCell id="89KOBiRgbCLTCbR4opKs-2" value="Manage account" style="shape=umlFrame;whiteSpace=wrap;html=1;pointerEvents=0;width=130;height=30;" vertex="1" parent="1">
          <mxGeometry x="70" y="760" width="570" height="340" as="geometry" />
        </mxCell>
        <mxCell id="89KOBiRgbCLTCbR4opKs-3" value="Form manage account" style="shape=umlBoundary;whiteSpace=wrap;html=1;fillColor=#FFCCE6;" vertex="1" parent="1">
          <mxGeometry x="165" y="980" width="100" height="80" as="geometry" />
        </mxCell>
        <mxCell id="89KOBiRgbCLTCbR4opKs-4" value="Control manage account" style="ellipse;shape=umlControl;whiteSpace=wrap;html=1;fillColor=#FFCCE6;" vertex="1" parent="1">
          <mxGeometry x="325" y="980" width="70" height="80" as="geometry" />
        </mxCell>
        <mxCell id="89KOBiRgbCLTCbR4opKs-5" value="Student" style="ellipse;shape=umlEntity;whiteSpace=wrap;html=1;fillColor=#FFCCE6;" vertex="1" parent="1">
          <mxGeometry x="455" y="980" width="80" height="80" as="geometry" />
        </mxCell>
        <mxCell id="89KOBiRgbCLTCbR4opKs-7" value="Student" style="shape=umlActor;verticalLabelPosition=bottom;verticalAlign=top;html=1;fillColor=#FFF2CC;" vertex="1" parent="1">
          <mxGeometry x="225" y="815" width="30" height="60" as="geometry" />
        </mxCell>
        <mxCell id="89KOBiRgbCLTCbR4opKs-8" value="Manage account" style="ellipse;whiteSpace=wrap;html=1;fillColor=#FFF2CC;" vertex="1" parent="1">
          <mxGeometry x="415" y="810" width="140" height="70" as="geometry" />
        </mxCell>
        <mxCell id="89KOBiRgbCLTCbR4opKs-9" value="" style="endArrow=none;html=1;rounded=0;entryX=0;entryY=0.5;entryDx=0;entryDy=0;" edge="1" parent="1" source="89KOBiRgbCLTCbR4opKs-7" target="89KOBiRgbCLTCbR4opKs-8">
          <mxGeometry width="50" height="50" relative="1" as="geometry">
            <mxPoint x="225" y="910" as="sourcePoint" />
            <mxPoint x="275" y="860" as="targetPoint" />
          </mxGeometry>
        </mxCell>
        <mxCell id="89KOBiRgbCLTCbR4opKs-10" value="" style="endArrow=none;html=1;rounded=0;" edge="1" parent="1">
          <mxGeometry width="50" height="50" relative="1" as="geometry">
            <mxPoint x="355" y="960" as="sourcePoint" />
            <mxPoint x="355" y="890" as="targetPoint" />
          </mxGeometry>
        </mxCell>
        <mxCell id="89KOBiRgbCLTCbR4opKs-12" value="Chat" style="ellipse;shape=umlEntity;whiteSpace=wrap;html=1;fillColor=#FFCCE6;" vertex="1" parent="1">
          <mxGeometry x="525" y="250" width="80" height="80" as="geometry" />
        </mxCell>
        <mxCell id="89KOBiRgbCLTCbR4opKs-13" value="Manage courses" style="shape=umlFrame;whiteSpace=wrap;html=1;pointerEvents=0;width=110;height=30;" vertex="1" parent="1">
          <mxGeometry x="70" y="1130" width="570" height="340" as="geometry" />
        </mxCell>
        <mxCell id="89KOBiRgbCLTCbR4opKs-14" value="Form manage courses" style="shape=umlBoundary;whiteSpace=wrap;html=1;fillColor=#FFCCE6;" vertex="1" parent="1">
          <mxGeometry x="165" y="1350" width="100" height="80" as="geometry" />
        </mxCell>
        <mxCell id="89KOBiRgbCLTCbR4opKs-15" value="Control manage courses" style="ellipse;shape=umlControl;whiteSpace=wrap;html=1;fillColor=#FFCCE6;" vertex="1" parent="1">
          <mxGeometry x="325" y="1350" width="70" height="80" as="geometry" />
        </mxCell>
        <mxCell id="89KOBiRgbCLTCbR4opKs-16" value="Course" style="ellipse;shape=umlEntity;whiteSpace=wrap;html=1;fillColor=#FFCCE6;" vertex="1" parent="1">
          <mxGeometry x="455" y="1350" width="80" height="80" as="geometry" />
        </mxCell>
        <mxCell id="89KOBiRgbCLTCbR4opKs-17" value="Admin" style="shape=umlActor;verticalLabelPosition=bottom;verticalAlign=top;html=1;fillColor=#FFF2CC;" vertex="1" parent="1">
          <mxGeometry x="225" y="1185" width="30" height="60" as="geometry" />
        </mxCell>
        <mxCell id="89KOBiRgbCLTCbR4opKs-18" value="Manage courses" style="ellipse;whiteSpace=wrap;html=1;fillColor=#FFF2CC;" vertex="1" parent="1">
          <mxGeometry x="415" y="1180" width="140" height="70" as="geometry" />
        </mxCell>
        <mxCell id="89KOBiRgbCLTCbR4opKs-19" value="" style="endArrow=none;html=1;rounded=0;entryX=0;entryY=0.5;entryDx=0;entryDy=0;" edge="1" parent="1" source="89KOBiRgbCLTCbR4opKs-17" target="89KOBiRgbCLTCbR4opKs-18">
          <mxGeometry width="50" height="50" relative="1" as="geometry">
            <mxPoint x="225" y="1280" as="sourcePoint" />
            <mxPoint x="275" y="1230" as="targetPoint" />
          </mxGeometry>
        </mxCell>
        <mxCell id="89KOBiRgbCLTCbR4opKs-20" value="" style="endArrow=none;html=1;rounded=0;" edge="1" parent="1">
          <mxGeometry width="50" height="50" relative="1" as="geometry">
            <mxPoint x="355" y="1330" as="sourcePoint" />
            <mxPoint x="355" y="1260" as="targetPoint" />
          </mxGeometry>
        </mxCell>
        <mxCell id="89KOBiRgbCLTCbR4opKs-21" value="Manage lessons" style="shape=umlFrame;whiteSpace=wrap;html=1;pointerEvents=0;width=110;height=30;" vertex="1" parent="1">
          <mxGeometry x="70" y="1500" width="570" height="340" as="geometry" />
        </mxCell>
        <mxCell id="89KOBiRgbCLTCbR4opKs-22" value="Form manage lessons" style="shape=umlBoundary;whiteSpace=wrap;html=1;fillColor=#FFCCE6;" vertex="1" parent="1">
          <mxGeometry x="165" y="1720" width="100" height="80" as="geometry" />
        </mxCell>
        <mxCell id="89KOBiRgbCLTCbR4opKs-23" value="Control manage lessons" style="ellipse;shape=umlControl;whiteSpace=wrap;html=1;fillColor=#FFCCE6;" vertex="1" parent="1">
          <mxGeometry x="325" y="1720" width="70" height="80" as="geometry" />
        </mxCell>
        <mxCell id="89KOBiRgbCLTCbR4opKs-24" value="Lesson" style="ellipse;shape=umlEntity;whiteSpace=wrap;html=1;fillColor=#FFCCE6;" vertex="1" parent="1">
          <mxGeometry x="455" y="1720" width="80" height="80" as="geometry" />
        </mxCell>
        <mxCell id="89KOBiRgbCLTCbR4opKs-25" value="Admin" style="shape=umlActor;verticalLabelPosition=bottom;verticalAlign=top;html=1;fillColor=#FFF2CC;" vertex="1" parent="1">
          <mxGeometry x="225" y="1555" width="30" height="60" as="geometry" />
        </mxCell>
        <mxCell id="89KOBiRgbCLTCbR4opKs-26" value="Manage lessons" style="ellipse;whiteSpace=wrap;html=1;fillColor=#FFF2CC;" vertex="1" parent="1">
          <mxGeometry x="415" y="1550" width="140" height="70" as="geometry" />
        </mxCell>
        <mxCell id="89KOBiRgbCLTCbR4opKs-27" value="" style="endArrow=none;html=1;rounded=0;entryX=0;entryY=0.5;entryDx=0;entryDy=0;" edge="1" parent="1" source="89KOBiRgbCLTCbR4opKs-25" target="89KOBiRgbCLTCbR4opKs-26">
          <mxGeometry width="50" height="50" relative="1" as="geometry">
            <mxPoint x="225" y="1650" as="sourcePoint" />
            <mxPoint x="275" y="1600" as="targetPoint" />
          </mxGeometry>
        </mxCell>
        <mxCell id="89KOBiRgbCLTCbR4opKs-28" value="" style="endArrow=none;html=1;rounded=0;" edge="1" parent="1">
          <mxGeometry width="50" height="50" relative="1" as="geometry">
            <mxPoint x="355" y="1700" as="sourcePoint" />
            <mxPoint x="355" y="1630" as="targetPoint" />
          </mxGeometry>
        </mxCell>
        <mxCell id="89KOBiRgbCLTCbR4opKs-29" value="Manage purchased courses" style="shape=umlFrame;whiteSpace=wrap;html=1;pointerEvents=0;width=170;height=30;" vertex="1" parent="1">
          <mxGeometry x="70" y="1860" width="570" height="340" as="geometry" />
        </mxCell>
        <mxCell id="89KOBiRgbCLTCbR4opKs-30" value="Form manage purchased courses" style="shape=umlBoundary;whiteSpace=wrap;html=1;fillColor=#FFCCE6;" vertex="1" parent="1">
          <mxGeometry x="80" y="2070" width="100" height="80" as="geometry" />
        </mxCell>
        <mxCell id="89KOBiRgbCLTCbR4opKs-31" value="Control manage purchased courses" style="ellipse;shape=umlControl;whiteSpace=wrap;html=1;fillColor=#FFCCE6;" vertex="1" parent="1">
          <mxGeometry x="202.5" y="2060" width="85" height="90" as="geometry" />
        </mxCell>
        <mxCell id="89KOBiRgbCLTCbR4opKs-32" value="Courses" style="ellipse;shape=umlEntity;whiteSpace=wrap;html=1;fillColor=#FFCCE6;" vertex="1" parent="1">
          <mxGeometry x="315" y="2070" width="80" height="80" as="geometry" />
        </mxCell>
        <mxCell id="89KOBiRgbCLTCbR4opKs-33" value="Student" style="shape=umlActor;verticalLabelPosition=bottom;verticalAlign=top;html=1;fillColor=#FFF2CC;" vertex="1" parent="1">
          <mxGeometry x="225" y="1915" width="30" height="60" as="geometry" />
        </mxCell>
        <mxCell id="89KOBiRgbCLTCbR4opKs-34" value="Manage purchased courses" style="ellipse;whiteSpace=wrap;html=1;fillColor=#FFF2CC;" vertex="1" parent="1">
          <mxGeometry x="415" y="1910" width="140" height="70" as="geometry" />
        </mxCell>
        <mxCell id="89KOBiRgbCLTCbR4opKs-35" value="" style="endArrow=none;html=1;rounded=0;entryX=0;entryY=0.5;entryDx=0;entryDy=0;" edge="1" parent="1" source="89KOBiRgbCLTCbR4opKs-33" target="89KOBiRgbCLTCbR4opKs-34">
          <mxGeometry width="50" height="50" relative="1" as="geometry">
            <mxPoint x="225" y="2010" as="sourcePoint" />
            <mxPoint x="275" y="1960" as="targetPoint" />
          </mxGeometry>
        </mxCell>
        <mxCell id="89KOBiRgbCLTCbR4opKs-36" value="" style="endArrow=none;html=1;rounded=0;" edge="1" parent="1">
          <mxGeometry width="50" height="50" relative="1" as="geometry">
            <mxPoint x="355" y="2060" as="sourcePoint" />
            <mxPoint x="355" y="1990" as="targetPoint" />
          </mxGeometry>
        </mxCell>
        <mxCell id="89KOBiRgbCLTCbR4opKs-38" value="Evaluation" style="ellipse;shape=umlEntity;whiteSpace=wrap;html=1;fillColor=#FFCCE6;" vertex="1" parent="1">
          <mxGeometry x="430" y="2070" width="80" height="80" as="geometry" />
        </mxCell>
        <mxCell id="89KOBiRgbCLTCbR4opKs-39" value="Add favourite courses" style="shape=umlFrame;whiteSpace=wrap;html=1;pointerEvents=0;width=170;height=30;" vertex="1" parent="1">
          <mxGeometry x="70" y="2230" width="570" height="340" as="geometry" />
        </mxCell>
        <mxCell id="89KOBiRgbCLTCbR4opKs-40" value="Form add favourite courses" style="shape=umlBoundary;whiteSpace=wrap;html=1;fillColor=#FFCCE6;" vertex="1" parent="1">
          <mxGeometry x="165" y="2450" width="100" height="80" as="geometry" />
        </mxCell>
        <mxCell id="89KOBiRgbCLTCbR4opKs-41" value="Control add favourite courses" style="ellipse;shape=umlControl;whiteSpace=wrap;html=1;fillColor=#FFCCE6;" vertex="1" parent="1">
          <mxGeometry x="315" y="2440" width="85" height="90" as="geometry" />
        </mxCell>
        <mxCell id="89KOBiRgbCLTCbR4opKs-42" value="Student" style="ellipse;shape=umlEntity;whiteSpace=wrap;html=1;fillColor=#FFCCE6;" vertex="1" parent="1">
          <mxGeometry x="444" y="2450" width="80" height="80" as="geometry" />
        </mxCell>
        <mxCell id="89KOBiRgbCLTCbR4opKs-43" value="Student" style="shape=umlActor;verticalLabelPosition=bottom;verticalAlign=top;html=1;fillColor=#FFF2CC;" vertex="1" parent="1">
          <mxGeometry x="225" y="2285" width="30" height="60" as="geometry" />
        </mxCell>
        <mxCell id="89KOBiRgbCLTCbR4opKs-44" value="Add favourite courses" style="ellipse;whiteSpace=wrap;html=1;fillColor=#FFF2CC;" vertex="1" parent="1">
          <mxGeometry x="415" y="2280" width="140" height="70" as="geometry" />
        </mxCell>
        <mxCell id="89KOBiRgbCLTCbR4opKs-45" value="" style="endArrow=none;html=1;rounded=0;entryX=0;entryY=0.5;entryDx=0;entryDy=0;" edge="1" parent="1" source="89KOBiRgbCLTCbR4opKs-43" target="89KOBiRgbCLTCbR4opKs-44">
          <mxGeometry width="50" height="50" relative="1" as="geometry">
            <mxPoint x="225" y="2380" as="sourcePoint" />
            <mxPoint x="275" y="2330" as="targetPoint" />
          </mxGeometry>
        </mxCell>
        <mxCell id="89KOBiRgbCLTCbR4opKs-46" value="" style="endArrow=none;html=1;rounded=0;" edge="1" parent="1">
          <mxGeometry width="50" height="50" relative="1" as="geometry">
            <mxPoint x="355" y="2430" as="sourcePoint" />
            <mxPoint x="355" y="2360" as="targetPoint" />
          </mxGeometry>
        </mxCell>
        <mxCell id="89KOBiRgbCLTCbR4opKs-48" value="Manage bills" style="shape=umlFrame;whiteSpace=wrap;html=1;pointerEvents=0;width=170;height=30;" vertex="1" parent="1">
          <mxGeometry x="70" y="2590" width="570" height="340" as="geometry" />
        </mxCell>
        <mxCell id="89KOBiRgbCLTCbR4opKs-49" value="Form manage bills" style="shape=umlBoundary;whiteSpace=wrap;html=1;fillColor=#FFCCE6;" vertex="1" parent="1">
          <mxGeometry x="165" y="2810" width="100" height="80" as="geometry" />
        </mxCell>
        <mxCell id="89KOBiRgbCLTCbR4opKs-50" value="Control manage bills" style="ellipse;shape=umlControl;whiteSpace=wrap;html=1;fillColor=#FFCCE6;" vertex="1" parent="1">
          <mxGeometry x="315" y="2800" width="85" height="90" as="geometry" />
        </mxCell>
        <mxCell id="89KOBiRgbCLTCbR4opKs-51" value="Bill" style="ellipse;shape=umlEntity;whiteSpace=wrap;html=1;fillColor=#FFCCE6;" vertex="1" parent="1">
          <mxGeometry x="444" y="2810" width="80" height="80" as="geometry" />
        </mxCell>
        <mxCell id="89KOBiRgbCLTCbR4opKs-52" value="Admin" style="shape=umlActor;verticalLabelPosition=bottom;verticalAlign=top;html=1;fillColor=#FFF2CC;" vertex="1" parent="1">
          <mxGeometry x="225" y="2645" width="30" height="60" as="geometry" />
        </mxCell>
        <mxCell id="89KOBiRgbCLTCbR4opKs-53" value="Manage bills" style="ellipse;whiteSpace=wrap;html=1;fillColor=#FFF2CC;" vertex="1" parent="1">
          <mxGeometry x="415" y="2640" width="140" height="70" as="geometry" />
        </mxCell>
        <mxCell id="89KOBiRgbCLTCbR4opKs-54" value="" style="endArrow=none;html=1;rounded=0;entryX=0;entryY=0.5;entryDx=0;entryDy=0;" edge="1" parent="1" source="89KOBiRgbCLTCbR4opKs-52" target="89KOBiRgbCLTCbR4opKs-53">
          <mxGeometry width="50" height="50" relative="1" as="geometry">
            <mxPoint x="225" y="2740" as="sourcePoint" />
            <mxPoint x="275" y="2690" as="targetPoint" />
          </mxGeometry>
        </mxCell>
        <mxCell id="89KOBiRgbCLTCbR4opKs-55" value="" style="endArrow=none;html=1;rounded=0;" edge="1" parent="1">
          <mxGeometry width="50" height="50" relative="1" as="geometry">
            <mxPoint x="355" y="2790" as="sourcePoint" />
            <mxPoint x="355" y="2720" as="targetPoint" />
          </mxGeometry>
        </mxCell>
        <mxCell id="89KOBiRgbCLTCbR4opKs-56" value="Register" style="ellipse;shape=umlEntity;whiteSpace=wrap;html=1;fillColor=#FFCCE6;" vertex="1" parent="1">
          <mxGeometry x="535" y="2070" width="80" height="80" as="geometry" />
        </mxCell>
        <mxCell id="89KOBiRgbCLTCbR4opKs-57" value="Record revenue" style="shape=umlFrame;whiteSpace=wrap;html=1;pointerEvents=0;width=170;height=30;" vertex="1" parent="1">
          <mxGeometry x="70" y="2960" width="570" height="340" as="geometry" />
        </mxCell>
        <mxCell id="89KOBiRgbCLTCbR4opKs-58" value="Form record revenue" style="shape=umlBoundary;whiteSpace=wrap;html=1;fillColor=#FFCCE6;" vertex="1" parent="1">
          <mxGeometry x="165" y="3180" width="100" height="80" as="geometry" />
        </mxCell>
        <mxCell id="89KOBiRgbCLTCbR4opKs-59" value="Control record revenue" style="ellipse;shape=umlControl;whiteSpace=wrap;html=1;fillColor=#FFCCE6;" vertex="1" parent="1">
          <mxGeometry x="315" y="3170" width="85" height="90" as="geometry" />
        </mxCell>
        <mxCell id="89KOBiRgbCLTCbR4opKs-60" value="Bill" style="ellipse;shape=umlEntity;whiteSpace=wrap;html=1;fillColor=#FFCCE6;" vertex="1" parent="1">
          <mxGeometry x="444" y="3180" width="80" height="80" as="geometry" />
        </mxCell>
        <mxCell id="89KOBiRgbCLTCbR4opKs-61" value="Admin" style="shape=umlActor;verticalLabelPosition=bottom;verticalAlign=top;html=1;fillColor=#FFF2CC;" vertex="1" parent="1">
          <mxGeometry x="225" y="3015" width="30" height="60" as="geometry" />
        </mxCell>
        <mxCell id="89KOBiRgbCLTCbR4opKs-62" value="Record revenue" style="ellipse;whiteSpace=wrap;html=1;fillColor=#FFF2CC;" vertex="1" parent="1">
          <mxGeometry x="415" y="3010" width="140" height="70" as="geometry" />
        </mxCell>
        <mxCell id="89KOBiRgbCLTCbR4opKs-63" value="" style="endArrow=none;html=1;rounded=0;entryX=0;entryY=0.5;entryDx=0;entryDy=0;" edge="1" parent="1" source="89KOBiRgbCLTCbR4opKs-61" target="89KOBiRgbCLTCbR4opKs-62">
          <mxGeometry width="50" height="50" relative="1" as="geometry">
            <mxPoint x="225" y="3110" as="sourcePoint" />
            <mxPoint x="275" y="3060" as="targetPoint" />
          </mxGeometry>
        </mxCell>
        <mxCell id="89KOBiRgbCLTCbR4opKs-64" value="" style="endArrow=none;html=1;rounded=0;" edge="1" parent="1">
          <mxGeometry width="50" height="50" relative="1" as="geometry">
            <mxPoint x="355" y="3160" as="sourcePoint" />
            <mxPoint x="355" y="3090" as="targetPoint" />
          </mxGeometry>
        </mxCell>
        <mxCell id="89KOBiRgbCLTCbR4opKs-65" value="Corfirm course payment" style="shape=umlFrame;whiteSpace=wrap;html=1;pointerEvents=0;width=170;height=30;" vertex="1" parent="1">
          <mxGeometry x="72.5" y="3330" width="570" height="340" as="geometry" />
        </mxCell>
        <mxCell id="89KOBiRgbCLTCbR4opKs-66" value="Form confirm" style="shape=umlBoundary;whiteSpace=wrap;html=1;fillColor=#FFCCE6;" vertex="1" parent="1">
          <mxGeometry x="100" y="3550" width="100" height="80" as="geometry" />
        </mxCell>
        <mxCell id="89KOBiRgbCLTCbR4opKs-67" value="Control confirm" style="ellipse;shape=umlControl;whiteSpace=wrap;html=1;fillColor=#FFCCE6;" vertex="1" parent="1">
          <mxGeometry x="250" y="3540" width="85" height="90" as="geometry" />
        </mxCell>
        <mxCell id="89KOBiRgbCLTCbR4opKs-68" value="Register" style="ellipse;shape=umlEntity;whiteSpace=wrap;html=1;fillColor=#FFCCE6;" vertex="1" parent="1">
          <mxGeometry x="379" y="3550" width="80" height="80" as="geometry" />
        </mxCell>
        <mxCell id="89KOBiRgbCLTCbR4opKs-69" value="Admin" style="shape=umlActor;verticalLabelPosition=bottom;verticalAlign=top;html=1;fillColor=#FFF2CC;" vertex="1" parent="1">
          <mxGeometry x="227.5" y="3385" width="30" height="60" as="geometry" />
        </mxCell>
        <mxCell id="89KOBiRgbCLTCbR4opKs-70" value="Confirm course payment" style="ellipse;whiteSpace=wrap;html=1;fillColor=#FFF2CC;" vertex="1" parent="1">
          <mxGeometry x="417.5" y="3380" width="140" height="70" as="geometry" />
        </mxCell>
        <mxCell id="89KOBiRgbCLTCbR4opKs-71" value="" style="endArrow=none;html=1;rounded=0;entryX=0;entryY=0.5;entryDx=0;entryDy=0;" edge="1" parent="1" source="89KOBiRgbCLTCbR4opKs-69" target="89KOBiRgbCLTCbR4opKs-70">
          <mxGeometry width="50" height="50" relative="1" as="geometry">
            <mxPoint x="227.5" y="3480" as="sourcePoint" />
            <mxPoint x="277.5" y="3430" as="targetPoint" />
          </mxGeometry>
        </mxCell>
        <mxCell id="89KOBiRgbCLTCbR4opKs-72" value="" style="endArrow=none;html=1;rounded=0;" edge="1" parent="1">
          <mxGeometry width="50" height="50" relative="1" as="geometry">
            <mxPoint x="357.5" y="3530" as="sourcePoint" />
            <mxPoint x="357.5" y="3460" as="targetPoint" />
          </mxGeometry>
        </mxCell>
        <mxCell id="89KOBiRgbCLTCbR4opKs-73" value="Bill" style="ellipse;shape=umlEntity;whiteSpace=wrap;html=1;fillColor=#FFCCE6;" vertex="1" parent="1">
          <mxGeometry x="495" y="3550" width="80" height="80" as="geometry" />
        </mxCell>
        <mxCell id="89KOBiRgbCLTCbR4opKs-74" value="Register a course" style="shape=umlFrame;whiteSpace=wrap;html=1;pointerEvents=0;width=170;height=30;" vertex="1" parent="1">
          <mxGeometry x="70" y="3700" width="570" height="340" as="geometry" />
        </mxCell>
        <mxCell id="89KOBiRgbCLTCbR4opKs-75" value="Form register" style="shape=umlBoundary;whiteSpace=wrap;html=1;fillColor=#FFCCE6;" vertex="1" parent="1">
          <mxGeometry x="161" y="3920" width="100" height="80" as="geometry" />
        </mxCell>
        <mxCell id="89KOBiRgbCLTCbR4opKs-76" value="Control register" style="ellipse;shape=umlControl;whiteSpace=wrap;html=1;fillColor=#FFCCE6;" vertex="1" parent="1">
          <mxGeometry x="311" y="3910" width="85" height="90" as="geometry" />
        </mxCell>
        <mxCell id="89KOBiRgbCLTCbR4opKs-77" value="Register" style="ellipse;shape=umlEntity;whiteSpace=wrap;html=1;fillColor=#FFCCE6;" vertex="1" parent="1">
          <mxGeometry x="440" y="3920" width="80" height="80" as="geometry" />
        </mxCell>
        <mxCell id="89KOBiRgbCLTCbR4opKs-78" value="Student" style="shape=umlActor;verticalLabelPosition=bottom;verticalAlign=top;html=1;fillColor=#FFF2CC;" vertex="1" parent="1">
          <mxGeometry x="225" y="3755" width="30" height="60" as="geometry" />
        </mxCell>
        <mxCell id="89KOBiRgbCLTCbR4opKs-79" value="Register a course" style="ellipse;whiteSpace=wrap;html=1;fillColor=#FFF2CC;" vertex="1" parent="1">
          <mxGeometry x="415" y="3750" width="140" height="70" as="geometry" />
        </mxCell>
        <mxCell id="89KOBiRgbCLTCbR4opKs-80" value="" style="endArrow=none;html=1;rounded=0;entryX=0;entryY=0.5;entryDx=0;entryDy=0;" edge="1" parent="1" source="89KOBiRgbCLTCbR4opKs-78" target="89KOBiRgbCLTCbR4opKs-79">
          <mxGeometry width="50" height="50" relative="1" as="geometry">
            <mxPoint x="225" y="3850" as="sourcePoint" />
            <mxPoint x="275" y="3800" as="targetPoint" />
          </mxGeometry>
        </mxCell>
        <mxCell id="89KOBiRgbCLTCbR4opKs-81" value="" style="endArrow=none;html=1;rounded=0;" edge="1" parent="1">
          <mxGeometry width="50" height="50" relative="1" as="geometry">
            <mxPoint x="355" y="3900" as="sourcePoint" />
            <mxPoint x="355" y="3830" as="targetPoint" />
          </mxGeometry>
        </mxCell>
      </root>
    </mxGraphModel>
  </diagram>
</mxfile>
